<mxfile host="app.diagrams.net" modified="2023-11-19T18:04:01.217Z" agent="Mozilla/5.0 (X11; Linux x86_64) AppleWebKit/537.36 (KHTML, like Gecko) Chrome/119.0.0.0 Safari/537.36" etag="QI7AYVVrp58CrdVpDghk" version="22.1.3" type="device">
  <diagram name="Página-1" id="jLLrigTPkXm21cQfeJ2t">
    <mxGraphModel dx="1356" dy="572" grid="1" gridSize="10" guides="1" tooltips="1" connect="1" arrows="1" fold="1" page="1" pageScale="1" pageWidth="827" pageHeight="1169" math="0" shadow="0">
      <root>
        <mxCell id="0" />
        <mxCell id="1" parent="0" />
        <mxCell id="NJmePhGoNdVWyaTDEHe7-1" value="Conta" style="swimlane;fontStyle=1;align=center;verticalAlign=top;childLayout=stackLayout;horizontal=1;startSize=26;horizontalStack=0;resizeParent=1;resizeParentMax=0;resizeLast=0;collapsible=1;marginBottom=0;whiteSpace=wrap;html=1;" vertex="1" parent="1">
          <mxGeometry x="-560" y="498" width="220" height="190" as="geometry" />
        </mxCell>
        <mxCell id="NJmePhGoNdVWyaTDEHe7-2" value="+ titular: String&lt;br&gt;+ numero: int&lt;br&gt;+ agencia: String&lt;br&gt;+ saldo: double&lt;br&gt;+ dataAbertura: String" style="text;strokeColor=none;fillColor=none;align=left;verticalAlign=top;spacingLeft=4;spacingRight=4;overflow=hidden;rotatable=0;points=[[0,0.5],[1,0.5]];portConstraint=eastwest;whiteSpace=wrap;html=1;" vertex="1" parent="NJmePhGoNdVWyaTDEHe7-1">
          <mxGeometry y="26" width="220" height="84" as="geometry" />
        </mxCell>
        <mxCell id="NJmePhGoNdVWyaTDEHe7-3" value="" style="line;strokeWidth=1;fillColor=none;align=left;verticalAlign=middle;spacingTop=-1;spacingLeft=3;spacingRight=3;rotatable=0;labelPosition=right;points=[];portConstraint=eastwest;strokeColor=inherit;" vertex="1" parent="NJmePhGoNdVWyaTDEHe7-1">
          <mxGeometry y="110" width="220" height="8" as="geometry" />
        </mxCell>
        <mxCell id="NJmePhGoNdVWyaTDEHe7-4" value="+ sacar( valor: double ):&amp;nbsp;&lt;br&gt;+ depositar( valor: double )&lt;br&gt;+ calcularRendimento(): valorRedimento: double" style="text;strokeColor=none;fillColor=none;align=left;verticalAlign=top;spacingLeft=4;spacingRight=4;overflow=hidden;rotatable=0;points=[[0,0.5],[1,0.5]];portConstraint=eastwest;whiteSpace=wrap;html=1;" vertex="1" parent="NJmePhGoNdVWyaTDEHe7-1">
          <mxGeometry y="118" width="220" height="72" as="geometry" />
        </mxCell>
        <mxCell id="NJmePhGoNdVWyaTDEHe7-7" value="&lt;div style=&quot;text-align: left;&quot;&gt;&lt;span style=&quot;background-color: initial;&quot;&gt;Modele uma conta. A ideia aqui é apenas modelar,&amp;nbsp;&lt;/span&gt;&lt;/div&gt;&lt;font style=&quot;font-size: 12px;&quot;&gt;&lt;div style=&quot;text-align: left;&quot;&gt;&lt;span style=&quot;background-color: initial;&quot;&gt;isto é, identificar quais informações são importantes. Desenhe no papel tudo o que uma&lt;/span&gt;&lt;/div&gt;&lt;div style=&quot;text-align: left;&quot;&gt;&lt;code style=&quot;background-color: rgb(240, 240, 240); color: rgb(68, 68, 68); box-sizing: inherit; margin: 0px; padding: 0px 0.2rem;&quot;&gt;Conta&lt;/code&gt;&lt;span style=&quot;background-color: initial;&quot;&gt;&amp;nbsp;tem e tudo o que ela faz. Ela deve ter o&amp;nbsp;&lt;/span&gt;&lt;span style=&quot;background-color: initial;&quot;&gt;nome do titular (&lt;/span&gt;&lt;code style=&quot;box-sizing: inherit; margin: 0px; padding: 0px 0.2rem; background-color: rgb(240, 240, 240); color: rgb(68, 68, 68);&quot;&gt;String&lt;/code&gt;&lt;span style=&quot;color: rgb(68, 68, 68); background-color: rgb(247, 250, 251);&quot;&gt;), o número (&lt;/span&gt;&lt;code style=&quot;box-sizing: inherit; margin: 0px; padding: 0px 0.2rem; background-color: rgb(240, 240, 240); color: rgb(68, 68, 68);&quot;&gt;int&lt;/code&gt;&lt;span style=&quot;color: rgb(68, 68, 68); background-color: rgb(247, 250, 251);&quot;&gt;),&amp;nbsp;&lt;/span&gt;&lt;/div&gt;&lt;div style=&quot;text-align: left;&quot;&gt;&lt;span style=&quot;color: rgb(68, 68, 68); background-color: rgb(247, 250, 251);&quot;&gt;a agência (&lt;/span&gt;&lt;code style=&quot;box-sizing: inherit; margin: 0px; padding: 0px 0.2rem; background-color: rgb(240, 240, 240); color: rgb(68, 68, 68);&quot;&gt;String&lt;/code&gt;&lt;span style=&quot;color: rgb(68, 68, 68); background-color: rgb(247, 250, 251);&quot;&gt;), o saldo (&lt;/span&gt;&lt;code style=&quot;box-sizing: inherit; margin: 0px; padding: 0px 0.2rem; background-color: rgb(240, 240, 240); color: rgb(68, 68, 68);&quot;&gt;double&lt;/code&gt;&lt;span style=&quot;background-color: initial;&quot;&gt;) e uma data&amp;nbsp;&lt;/span&gt;&lt;span style=&quot;background-color: rgb(247, 250, 251); color: rgb(68, 68, 68);&quot;&gt;de abertura (&lt;/span&gt;&lt;code style=&quot;color: rgb(68, 68, 68); box-sizing: inherit; margin: 0px; padding: 0px 0.2rem; background-color: rgb(240, 240, 240);&quot;&gt;String&lt;/code&gt;&lt;span style=&quot;background-color: rgb(247, 250, 251); color: rgb(68, 68, 68);&quot;&gt;). Além disso,&amp;nbsp;&lt;/span&gt;&lt;/div&gt;&lt;div style=&quot;text-align: left;&quot;&gt;&lt;span style=&quot;background-color: rgb(247, 250, 251); color: rgb(68, 68, 68);&quot;&gt;a conta deve fazer as seguintes ações: sacar para retirar um valor do saldo;&lt;/span&gt;&lt;/div&gt;&lt;span style=&quot;color: rgb(68, 68, 68); background-color: rgb(247, 250, 251);&quot;&gt;&lt;div style=&quot;text-align: left;&quot;&gt;depositar a fim de adicionar um valor ao saldo; calculaRendimento para devolver o seu ganho mensal.&lt;/div&gt;&lt;/span&gt;&lt;/font&gt;" style="text;html=1;align=center;verticalAlign=middle;resizable=0;points=[];autosize=1;strokeColor=none;fillColor=none;" vertex="1" parent="1">
          <mxGeometry x="-675" y="293" width="570" height="100" as="geometry" />
        </mxCell>
      </root>
    </mxGraphModel>
  </diagram>
</mxfile>
